<?xml version="1.0" standalone="no"?><!DOCTYPE svg PUBLIC "-//W3C//DTD SVG 20010904//EN"
    "http://www.w3.org/TR/2001/REC-SVG-20010904/DTD/svg10.dtd">
<svg version="1.0" xmlns="http://www.w3.org/2000/svg" width="2000.000000pt" height="1500.000000pt"
    viewBox="0 0 2000.000000 1500.000000" preserveAspectRatio="xMidYMid meet">

    <g transform="translate(0.000000,1500.000000) scale(0.100000,-0.100000)" fill="#004881"
        stroke="none">
        <path d="M5825 11967 l-35 -35 0 -967 0 -967 34 -34 c29 -29 41 -34 83 -34 52
0 85 17 105 53 10 16 14 137 18 472 5 447 5 450 28 498 74 148 273 242 465
217 171 -21 289 -108 348 -257 23 -57 24 -68 29 -483 5 -384 7 -427 23 -451
22 -33 57 -49 108 -49 33 0 48 7 75 34 l34 34 0 411 c0 469 -5 513 -71 648
-100 206 -282 318 -535 330 -178 9 -326 -36 -451 -136 l-53 -41 0 337 c0 195
-4 353 -10 374 -15 52 -41 72 -105 77 -52 4 -56 3 -90 -31z" />
        <path d="M12750 11987 c-14 -7 -33 -28 -42 -47 -17 -32 -18 -86 -18 -680 0
-372 5 -674 10 -714 29 -201 147 -396 303 -502 67 -45 180 -92 259 -108 171
-35 343 -14 497 61 79 38 108 59 180 131 132 133 191 253 213 434 57 461 -287
852 -727 825 -168 -10 -309 -73 -436 -194 l-58 -55 -3 402 -3 402 -33 29 c-36
32 -96 39 -142 16z m783 -822 c233 -49 390 -255 390 -510 0 -299 -215 -525
-498 -525 -226 0 -412 143 -479 369 -23 79 -22 241 4 322 41 134 124 236 240
298 108 58 219 72 343 46z" />
        <path d="M14953 11981 c-85 -23 -118 -39 -200 -98 -148 -104 -242 -283 -246
-470 -2 -80 14 -114 67 -140 44 -21 100 -10 136 25 22 23 29 41 38 117 20 155
99 273 222 332 48 24 68 27 150 28 82 0 103 -4 151 -26 115 -54 180 -150 201
-299 11 -71 10 -90 -5 -148 -10 -37 -34 -95 -55 -129 -20 -34 -224 -281 -452
-549 -228 -268 -423 -499 -432 -513 -22 -32 -23 -82 -3 -121 31 -61 22 -60
605 -60 583 0 574 -1 605 60 26 50 19 95 -19 138 l-34 37 -416 5 -416 5 331
380 c424 486 457 531 504 678 58 182 12 416 -113 573 -50 63 -155 135 -242
165 -93 32 -276 37 -377 10z" />
        <path d="M5140 11389 c-122 -14 -229 -63 -324 -150 l-54 -49 -4 65 c-3 54 -9
70 -30 91 -55 56 -165 38 -194 -31 -21 -50 -21 -1269 0 -1319 19 -46 51 -66
108 -66 39 0 54 6 80 29 l33 29 5 469 5 468 27 50 c33 64 104 130 171 160 91
40 158 48 322 40 l150 -7 24 26 c16 17 24 38 25 66 1 35 -4 47 -31 71 -55 49
-183 73 -313 58z" />
        <path d="M3248 11380 c-266 -48 -475 -228 -564 -485 -26 -74 -28 -92 -29 -235
0 -180 12 -238 77 -370 59 -120 179 -240 298 -299 116 -56 206 -74 345 -68
180 8 307 63 431 185 l64 63 0 -71 c0 -122 35 -170 123 -170 43 0 54 5 84 35
l34 34 -3 403 -3 403 -26 77 c-42 123 -93 204 -188 298 -94 94 -173 141 -296
180 -78 24 -266 35 -347 20z m228 -211 c233 -43 404 -259 404 -514 0 -401
-395 -648 -742 -463 -75 40 -168 139 -206 220 -94 199 -61 449 79 602 121 132
287 188 465 155z" />
        <path d="M8110 11376 c-143 -31 -261 -93 -361 -191 -147 -144 -219 -320 -219
-535 0 -291 146 -543 382 -659 113 -56 204 -74 343 -68 178 7 307 63 431 184
l64 62 0 -62 c0 -127 35 -177 125 -177 40 0 52 5 81 34 l34 34 0 377 c0 430
-4 463 -75 610 -47 97 -110 178 -190 244 -59 49 -187 115 -265 137 -78 21
-270 27 -350 10z m263 -211 c318 -67 483 -449 331 -763 -36 -73 -131 -172
-202 -210 -203 -108 -432 -74 -592 87 -101 102 -150 224 -150 371 1 349 282
585 613 515z" />
        <path d="M9895 11376 c-68 -16 -136 -50 -195 -97 -27 -22 -51 -39 -53 -39 -3
0 -7 19 -10 42 -14 102 -156 129 -214 42 -17 -26 -18 -67 -21 -639 -2 -335 0
-630 3 -654 10 -65 51 -101 117 -101 44 0 54 4 84 34 l34 34 0 420 c0 230 4
442 10 470 33 176 163 284 342 284 133 0 224 -56 280 -170 l33 -67 5 -465 c4
-347 8 -471 18 -487 20 -36 53 -53 104 -53 39 0 54 6 80 29 l33 29 5 459 c5
447 6 459 28 514 31 79 90 142 166 179 53 26 76 32 138 32 183 2 301 -101 328
-287 5 -38 10 -251 10 -473 0 -437 1 -446 55 -470 38 -18 106 -15 131 6 43 35
44 42 44 520 0 426 -1 464 -20 537 -62 243 -247 385 -500 385 -164 0 -301 -53
-406 -155 l-61 -60 -64 66 c-101 105 -212 150 -369 148 -47 0 -108 -6 -135
-13z" />
        <path d="M16615 11375 c-149 -27 -258 -88 -367 -203 -127 -135 -190 -308 -189
-521 0 -186 49 -335 151 -462 153 -191 359 -280 617 -266 171 8 319 66 419
161 56 54 59 90 11 143 -49 53 -92 50 -180 -10 -37 -26 -91 -54 -120 -62 -72
-23 -209 -30 -280 -16 -177 37 -325 179 -372 357 -20 77 -20 241 0 319 64 246
281 393 527 357 101 -15 185 -55 266 -128 83 -75 123 -82 178 -31 51 46 52 88
5 143 -160 185 -408 267 -666 219z" />
        <path d="M7172 8178 c-46 -16 -122 -85 -143 -133 -42 -92 -11 -231 64 -288 72
-54 50 -52 552 -57 417 -5 474 -7 507 -23 89 -41 159 -133 161 -214 2 -44 0
-47 -28 -53 -104 -22 -175 -112 -175 -219 0 -28 61 -394 135 -814 74 -421 135
-769 135 -773 0 -5 -29 -24 -63 -42 -272 -140 -440 -465 -397 -771 13 -99 54
-217 101 -298 19 -32 75 -99 124 -148 99 -100 188 -154 325 -197 l75 -23 1306
0 1306 0 49 30 c68 43 107 108 112 190 2 35 -1 80 -8 100 -16 48 -72 110 -124
138 l-41 22 -1270 5 -1270 5 -54 30 c-91 50 -142 137 -142 240 0 115 60 208
166 257 l50 23 1495 5 c1442 5 1497 6 1540 24 120 51 230 146 289 250 68 120
896 1656 922 1711 41 86 41 161 -1 208 -20 23 -45 38 -74 46 -32 8 -595 11
-2015 11 l-1971 0 0 53 c0 76 -33 199 -79 292 -74 150 -204 277 -356 350 -144
69 -138 68 -680 71 -331 2 -501 -1 -523 -8z m5038 -1242 c0 -18 -677 -1256
-696 -1273 l-25 -23 -1314 0 -1313 0 -6 28 c-3 15 -53 297 -111 627 -58 330
-107 610 -110 623 l-5 22 1790 0 c984 0 1790 -2 1790 -4z" />
        <path d="M8850 3950 c-290 -50 -456 -370 -331 -635 146 -308 579 -345 774 -65
86 124 103 308 40 443 -63 132 -196 234 -338 257 -67 11 -81 11 -145 0z" />
        <path d="M10791 3949 c-132 -23 -261 -120 -320 -241 -112 -227 -21 -493 207
-605 75 -37 78 -38 192 -38 114 0 117 1 191 37 417 206 303 811 -161 852 -30
2 -79 0 -109 -5z" />
    </g>
</svg>
